solid OpenSCAD_Model
  facet normal 0.998629 0.0523376 0
    outer loop
      vertex 5.25 0 12.5
      vertex 5.22124 0.548774 0
      vertex 5.22124 0.548774 12.5
    endloop
  endfacet
  facet normal 0.998629 0.0523376 0
    outer loop
      vertex 5.22124 0.548774 0
      vertex 5.25 0 12.5
      vertex 5.25 0 0
    endloop
  endfacet
  facet normal -0.998629 0.0523376 0
    outer loop
      vertex -5.25 0 0
      vertex -5.22124 0.548774 12.5
      vertex -5.22124 0.548774 0
    endloop
  endfacet
  facet normal -0.998629 0.0523376 0
    outer loop
      vertex -5.22124 0.548774 12.5
      vertex -5.25 0 0
      vertex -5.25 0 12.5
    endloop
  endfacet
  facet normal 0.0523376 0.998629 -0
    outer loop
      vertex 0.548774 5.22124 0
      vertex 0 5.25 12.5
      vertex 0.548774 5.22124 12.5
    endloop
  endfacet
  facet normal 0.0523376 0.998629 0
    outer loop
      vertex 0 5.25 12.5
      vertex 0.548774 5.22124 0
      vertex 0 5.25 0
    endloop
  endfacet
  facet normal -0.0523376 -0.998629 0
    outer loop
      vertex -0.548774 -5.22124 0
      vertex 0 -5.25 12.5
      vertex -0.548774 -5.22124 12.5
    endloop
  endfacet
  facet normal -0.0523376 -0.998629 -0
    outer loop
      vertex 0 -5.25 12.5
      vertex -0.548774 -5.22124 0
      vertex 0 -5.25 0
    endloop
  endfacet
  facet normal 0.707107 0.707107 0
    outer loop
      vertex 3.90151 3.51294 12.5
      vertex 3.51294 3.90151 0
      vertex 3.51294 3.90151 12.5
    endloop
  endfacet
  facet normal 0.707107 0.707107 0
    outer loop
      vertex 3.51294 3.90151 0
      vertex 3.90151 3.51294 12.5
      vertex 3.90151 3.51294 0
    endloop
  endfacet
  facet normal -0.629319 0.777147 0
    outer loop
      vertex -3.08587 4.24734 0
      vertex -3.51294 3.90151 12.5
      vertex -3.08587 4.24734 12.5
    endloop
  endfacet
  facet normal -0.629319 0.777147 0
    outer loop
      vertex -3.51294 3.90151 12.5
      vertex -3.08587 4.24734 0
      vertex -3.51294 3.90151 0
    endloop
  endfacet
  facet normal -0.358368 0.933581 0
    outer loop
      vertex -1.62234 4.99305 0
      vertex -2.13537 4.79611 12.5
      vertex -1.62234 4.99305 12.5
    endloop
  endfacet
  facet normal -0.358368 0.933581 0
    outer loop
      vertex -2.13537 4.79611 12.5
      vertex -1.62234 4.99305 0
      vertex -2.13537 4.79611 0
    endloop
  endfacet
  facet normal -0.965925 -0.258821 0
    outer loop
      vertex -4.99305 -1.62234 0
      vertex -5.13527 -1.09154 12.5
      vertex -5.13527 -1.09154 0
    endloop
  endfacet
  facet normal -0.965925 -0.258821 0
    outer loop
      vertex -5.13527 -1.09154 12.5
      vertex -4.99305 -1.62234 0
      vertex -4.99305 -1.62234 12.5
    endloop
  endfacet
  facet normal 0.933581 0.358368 0
    outer loop
      vertex 4.99305 1.62234 12.5
      vertex 4.79611 2.13537 0
      vertex 4.79611 2.13537 12.5
    endloop
  endfacet
  facet normal 0.933581 0.358368 0
    outer loop
      vertex 4.79611 2.13537 0
      vertex 4.99305 1.62234 12.5
      vertex 4.99305 1.62234 0
    endloop
  endfacet
  facet normal 0.987689 0.156433 0
    outer loop
      vertex 5.22124 0.548774 12.5
      vertex 5.13527 1.09154 0
      vertex 5.13527 1.09154 12.5
    endloop
  endfacet
  facet normal 0.987689 0.156433 0
    outer loop
      vertex 5.13527 1.09154 0
      vertex 5.22124 0.548774 12.5
      vertex 5.22124 0.548774 0
    endloop
  endfacet
  facet normal 0.45399 0.891007 -0
    outer loop
      vertex 2.625 4.54663 0
      vertex 2.13537 4.79611 12.5
      vertex 2.625 4.54663 12.5
    endloop
  endfacet
  facet normal 0.45399 0.891007 0
    outer loop
      vertex 2.13537 4.79611 12.5
      vertex 2.625 4.54663 0
      vertex 2.13537 4.79611 0
    endloop
  endfacet
  facet normal 0.54464 0.83867 -0
    outer loop
      vertex 3.08587 4.24734 0
      vertex 2.625 4.54663 12.5
      vertex 3.08587 4.24734 12.5
    endloop
  endfacet
  facet normal 0.54464 0.83867 0
    outer loop
      vertex 2.625 4.54663 12.5
      vertex 3.08587 4.24734 0
      vertex 2.625 4.54663 0
    endloop
  endfacet
  facet normal -0.83867 0.544639 0
    outer loop
      vertex -4.54663 2.625 0
      vertex -4.24734 3.08587 12.5
      vertex -4.24734 3.08587 0
    endloop
  endfacet
  facet normal -0.83867 0.544639 0
    outer loop
      vertex -4.24734 3.08587 12.5
      vertex -4.54663 2.625 0
      vertex -4.54663 2.625 12.5
    endloop
  endfacet
  facet normal -0.777147 0.629319 0
    outer loop
      vertex -4.24734 3.08587 0
      vertex -3.90151 3.51294 12.5
      vertex -3.90151 3.51294 0
    endloop
  endfacet
  facet normal -0.777147 0.629319 0
    outer loop
      vertex -3.90151 3.51294 12.5
      vertex -4.24734 3.08587 0
      vertex -4.24734 3.08587 12.5
    endloop
  endfacet
  facet normal -0.45399 0.891007 0
    outer loop
      vertex -2.13537 4.79611 0
      vertex -2.625 4.54663 12.5
      vertex -2.13537 4.79611 12.5
    endloop
  endfacet
  facet normal -0.45399 0.891007 0
    outer loop
      vertex -2.625 4.54663 12.5
      vertex -2.13537 4.79611 0
      vertex -2.625 4.54663 0
    endloop
  endfacet
  facet normal -0.156433 0.987689 0
    outer loop
      vertex -0.548774 5.22124 0
      vertex -1.09154 5.13527 12.5
      vertex -0.548774 5.22124 12.5
    endloop
  endfacet
  facet normal -0.156433 0.987689 0
    outer loop
      vertex -1.09154 5.13527 12.5
      vertex -0.548774 5.22124 0
      vertex -1.09154 5.13527 0
    endloop
  endfacet
  facet normal 0.891007 -0.45399 0
    outer loop
      vertex 4.54663 -2.625 12.5
      vertex 4.79611 -2.13537 0
      vertex 4.79611 -2.13537 12.5
    endloop
  endfacet
  facet normal 0.891007 -0.45399 0
    outer loop
      vertex 4.79611 -2.13537 0
      vertex 4.54663 -2.625 12.5
      vertex 4.54663 -2.625 0
    endloop
  endfacet
  facet normal 0.258821 -0.965925 0
    outer loop
      vertex 1.09154 -5.13527 0
      vertex 1.62234 -4.99305 12.5
      vertex 1.09154 -5.13527 12.5
    endloop
  endfacet
  facet normal 0.258821 -0.965925 0
    outer loop
      vertex 1.62234 -4.99305 12.5
      vertex 1.09154 -5.13527 0
      vertex 1.62234 -4.99305 0
    endloop
  endfacet
  facet normal 0.707107 -0.707107 0
    outer loop
      vertex 3.51294 -3.90151 12.5
      vertex 3.90151 -3.51294 0
      vertex 3.90151 -3.51294 12.5
    endloop
  endfacet
  facet normal 0.707107 -0.707107 0
    outer loop
      vertex 3.90151 -3.51294 0
      vertex 3.51294 -3.90151 12.5
      vertex 3.51294 -3.90151 0
    endloop
  endfacet
  facet normal 0.965925 -0.258821 0
    outer loop
      vertex 4.99305 -1.62234 12.5
      vertex 5.13527 -1.09154 0
      vertex 5.13527 -1.09154 12.5
    endloop
  endfacet
  facet normal 0.965925 -0.258821 0
    outer loop
      vertex 5.13527 -1.09154 0
      vertex 4.99305 -1.62234 12.5
      vertex 4.99305 -1.62234 0
    endloop
  endfacet
  facet normal -0.358368 -0.933581 0
    outer loop
      vertex -2.13537 -4.79611 0
      vertex -1.62234 -4.99305 12.5
      vertex -2.13537 -4.79611 12.5
    endloop
  endfacet
  facet normal -0.358368 -0.933581 -0
    outer loop
      vertex -1.62234 -4.99305 12.5
      vertex -2.13537 -4.79611 0
      vertex -1.62234 -4.99305 0
    endloop
  endfacet
  facet normal -0.891007 -0.45399 0
    outer loop
      vertex -4.54663 -2.625 0
      vertex -4.79611 -2.13537 12.5
      vertex -4.79611 -2.13537 0
    endloop
  endfacet
  facet normal -0.891007 -0.45399 0
    outer loop
      vertex -4.79611 -2.13537 12.5
      vertex -4.54663 -2.625 0
      vertex -4.54663 -2.625 12.5
    endloop
  endfacet
  facet normal -0.83867 -0.544639 0
    outer loop
      vertex -4.24734 -3.08587 0
      vertex -4.54663 -2.625 12.5
      vertex -4.54663 -2.625 0
    endloop
  endfacet
  facet normal -0.83867 -0.544639 0
    outer loop
      vertex -4.54663 -2.625 12.5
      vertex -4.24734 -3.08587 0
      vertex -4.24734 -3.08587 12.5
    endloop
  endfacet
  facet normal 0 0 -1
    outer loop
      vertex 4.25 0 0
      vertex 5.25 0 0
      vertex 5.22124 -0.548774 0
    endloop
  endfacet
  facet normal 0 0 -1
    outer loop
      vertex 4.22672 -0.444245 0
      vertex 5.22124 -0.548774 0
      vertex 5.13527 -1.09154 0
    endloop
  endfacet
  facet normal 0 0 -1
    outer loop
      vertex 5.25 0 0
      vertex 4.25 0 0
      vertex 5.22124 0.548774 0
    endloop
  endfacet
  facet normal 0 0 -1
    outer loop
      vertex 4.15713 -0.883624 0
      vertex 5.13527 -1.09154 0
      vertex 4.99305 -1.62234 0
    endloop
  endfacet
  facet normal 0 0 -1
    outer loop
      vertex 4.22672 0.444245 0
      vertex 5.22124 0.548774 0
      vertex 4.25 0 0
    endloop
  endfacet
  facet normal 0 0 -1
    outer loop
      vertex 4.04199 -1.31332 0
      vertex 4.99305 -1.62234 0
      vertex 4.79611 -2.13537 0
    endloop
  endfacet
  facet normal -0 0 -1
    outer loop
      vertex 5.22124 0.548774 0
      vertex 4.22672 0.444245 0
      vertex 5.13527 1.09154 0
    endloop
  endfacet
  facet normal 0 0 -1
    outer loop
      vertex 3.88257 -1.72863 0
      vertex 4.79611 -2.13537 0
      vertex 4.54663 -2.625 0
    endloop
  endfacet
  facet normal 0 0 -1
    outer loop
      vertex 4.15713 0.883624 0
      vertex 5.13527 1.09154 0
      vertex 4.22672 0.444245 0
    endloop
  endfacet
  facet normal -0 0 -1
    outer loop
      vertex 5.13527 1.09154 0
      vertex 4.15713 0.883624 0
      vertex 4.99305 1.62234 0
    endloop
  endfacet
  facet normal 0 0 -1
    outer loop
      vertex 3.68061 -2.125 0
      vertex 4.54663 -2.625 0
      vertex 4.24734 -3.08587 0
    endloop
  endfacet
  facet normal 0 0 -1
    outer loop
      vertex 5.22124 -0.548774 0
      vertex 4.22672 -0.444245 0
      vertex 4.25 0 0
    endloop
  endfacet
  facet normal 0 0 -1
    outer loop
      vertex 5.13527 -1.09154 0
      vertex 4.15713 -0.883624 0
      vertex 4.22672 -0.444245 0
    endloop
  endfacet
  facet normal 0 0 -1
    outer loop
      vertex 4.99305 -1.62234 0
      vertex 4.04199 -1.31332 0
      vertex 4.15713 -0.883624 0
    endloop
  endfacet
  facet normal 0 0 -1
    outer loop
      vertex 3.43832 -2.49809 0
      vertex 4.24734 -3.08587 0
      vertex 3.90151 -3.51294 0
    endloop
  endfacet
  facet normal 0 0 -1
    outer loop
      vertex 4.79611 -2.13537 0
      vertex 3.88257 -1.72863 0
      vertex 4.04199 -1.31332 0
    endloop
  endfacet
  facet normal 0 0 -1
    outer loop
      vertex 4.54663 -2.625 0
      vertex 3.68061 -2.125 0
      vertex 3.88257 -1.72863 0
    endloop
  endfacet
  facet normal 0 0 -1
    outer loop
      vertex 3.15837 -2.8438 0
      vertex 3.90151 -3.51294 0
      vertex 3.51294 -3.90151 0
    endloop
  endfacet
  facet normal 0 0 -1
    outer loop
      vertex 4.24734 -3.08587 0
      vertex 3.43832 -2.49809 0
      vertex 3.68061 -2.125 0
    endloop
  endfacet
  facet normal 0 0 -1
    outer loop
      vertex 3.90151 -3.51294 0
      vertex 3.15837 -2.8438 0
      vertex 3.43832 -2.49809 0
    endloop
  endfacet
  facet normal 0 0 -1
    outer loop
      vertex 2.8438 -3.15837 0
      vertex 3.51294 -3.90151 0
      vertex 3.08587 -4.24734 0
    endloop
  endfacet
  facet normal 0 0 -1
    outer loop
      vertex 3.51294 -3.90151 0
      vertex 2.8438 -3.15837 0
      vertex 3.15837 -2.8438 0
    endloop
  endfacet
  facet normal 0 0 -1
    outer loop
      vertex 2.49809 -3.43832 0
      vertex 3.08587 -4.24734 0
      vertex 2.625 -4.54663 0
    endloop
  endfacet
  facet normal 0 0 -1
    outer loop
      vertex 3.08587 -4.24734 0
      vertex 2.49809 -3.43832 0
      vertex 2.8438 -3.15837 0
    endloop
  endfacet
  facet normal 0 0 -1
    outer loop
      vertex 2.125 -3.68061 0
      vertex 2.625 -4.54663 0
      vertex 2.13537 -4.79611 0
    endloop
  endfacet
  facet normal 0 0 -1
    outer loop
      vertex 2.625 -4.54663 0
      vertex 2.125 -3.68061 0
      vertex 2.49809 -3.43832 0
    endloop
  endfacet
  facet normal 0 0 -1
    outer loop
      vertex 2.13537 -4.79611 0
      vertex 1.72863 -3.88257 0
      vertex 2.125 -3.68061 0
    endloop
  endfacet
  facet normal 0 0 -1
    outer loop
      vertex 1.62234 -4.99305 0
      vertex 1.72863 -3.88257 0
      vertex 2.13537 -4.79611 0
    endloop
  endfacet
  facet normal 0 0 -1
    outer loop
      vertex 1.62234 -4.99305 0
      vertex 1.31332 -4.04199 0
      vertex 1.72863 -3.88257 0
    endloop
  endfacet
  facet normal 0 0 -1
    outer loop
      vertex 1.09154 -5.13527 0
      vertex 1.31332 -4.04199 0
      vertex 1.62234 -4.99305 0
    endloop
  endfacet
  facet normal 0 0 -1
    outer loop
      vertex 1.09154 -5.13527 0
      vertex 0.883624 -4.15713 0
      vertex 1.31332 -4.04199 0
    endloop
  endfacet
  facet normal 0 0 -1
    outer loop
      vertex 0.548774 -5.22124 0
      vertex 0.883624 -4.15713 0
      vertex 1.09154 -5.13527 0
    endloop
  endfacet
  facet normal 0 0 -1
    outer loop
      vertex 0.548774 -5.22124 0
      vertex 0.444245 -4.22672 0
      vertex 0.883624 -4.15713 0
    endloop
  endfacet
  facet normal 0 0 -1
    outer loop
      vertex 0 -5.25 0
      vertex 0.444245 -4.22672 0
      vertex 0.548774 -5.22124 0
    endloop
  endfacet
  facet normal 0 0 -1
    outer loop
      vertex 0 -5.25 0
      vertex 0 -4.25 0
      vertex 0.444245 -4.22672 0
    endloop
  endfacet
  facet normal 0 0 -1
    outer loop
      vertex 0 -5.25 0
      vertex -0.444245 -4.22672 0
      vertex 0 -4.25 0
    endloop
  endfacet
  facet normal 0 0 -1
    outer loop
      vertex -0.548774 -5.22124 0
      vertex -0.444245 -4.22672 0
      vertex 0 -5.25 0
    endloop
  endfacet
  facet normal 0 0 -1
    outer loop
      vertex -0.548774 -5.22124 0
      vertex -0.883624 -4.15713 0
      vertex -0.444245 -4.22672 0
    endloop
  endfacet
  facet normal 0 0 -1
    outer loop
      vertex -1.09154 -5.13527 0
      vertex -0.883624 -4.15713 0
      vertex -0.548774 -5.22124 0
    endloop
  endfacet
  facet normal 0 0 -1
    outer loop
      vertex -1.09154 -5.13527 0
      vertex -1.31332 -4.04199 0
      vertex -0.883624 -4.15713 0
    endloop
  endfacet
  facet normal 0 0 -1
    outer loop
      vertex -1.62234 -4.99305 0
      vertex -1.31332 -4.04199 0
      vertex -1.09154 -5.13527 0
    endloop
  endfacet
  facet normal 0 0 -1
    outer loop
      vertex -1.62234 -4.99305 0
      vertex -1.72863 -3.88257 0
      vertex -1.31332 -4.04199 0
    endloop
  endfacet
  facet normal 0 0 -1
    outer loop
      vertex -2.13537 -4.79611 0
      vertex -1.72863 -3.88257 0
      vertex -1.62234 -4.99305 0
    endloop
  endfacet
  facet normal -0 0 -1
    outer loop
      vertex -1.72863 -3.88257 0
      vertex -2.13537 -4.79611 0
      vertex -2.125 -3.68061 0
    endloop
  endfacet
  facet normal 0 0 -1
    outer loop
      vertex -2.625 -4.54663 0
      vertex -2.125 -3.68061 0
      vertex -2.13537 -4.79611 0
    endloop
  endfacet
  facet normal -0 0 -1
    outer loop
      vertex -2.125 -3.68061 0
      vertex -2.625 -4.54663 0
      vertex -2.49809 -3.43832 0
    endloop
  endfacet
  facet normal 0 0 -1
    outer loop
      vertex -3.08587 -4.24734 0
      vertex -2.49809 -3.43832 0
      vertex -2.625 -4.54663 0
    endloop
  endfacet
  facet normal -0 0 -1
    outer loop
      vertex -2.49809 -3.43832 0
      vertex -3.08587 -4.24734 0
      vertex -2.8438 -3.15837 0
    endloop
  endfacet
  facet normal 0 0 -1
    outer loop
      vertex -3.51294 -3.90151 0
      vertex -2.8438 -3.15837 0
      vertex -3.08587 -4.24734 0
    endloop
  endfacet
  facet normal -0 0 -1
    outer loop
      vertex -2.8438 -3.15837 0
      vertex -3.51294 -3.90151 0
      vertex -3.15837 -2.8438 0
    endloop
  endfacet
  facet normal 0 0 -1
    outer loop
      vertex -3.90151 -3.51294 0
      vertex -3.15837 -2.8438 0
      vertex -3.51294 -3.90151 0
    endloop
  endfacet
  facet normal -0 0 -1
    outer loop
      vertex -3.15837 -2.8438 0
      vertex -3.90151 -3.51294 0
      vertex -3.43832 -2.49809 0
    endloop
  endfacet
  facet normal 0 0 -1
    outer loop
      vertex -4.24734 -3.08587 0
      vertex -3.43832 -2.49809 0
      vertex -3.90151 -3.51294 0
    endloop
  endfacet
  facet normal -0 0 -1
    outer loop
      vertex -3.43832 -2.49809 0
      vertex -4.24734 -3.08587 0
      vertex -3.68061 -2.125 0
    endloop
  endfacet
  facet normal 0 0 -1
    outer loop
      vertex -4.54663 -2.625 0
      vertex -3.68061 -2.125 0
      vertex -4.24734 -3.08587 0
    endloop
  endfacet
  facet normal -0 0 -1
    outer loop
      vertex -3.68061 -2.125 0
      vertex -4.54663 -2.625 0
      vertex -3.88257 -1.72863 0
    endloop
  endfacet
  facet normal 0 0 -1
    outer loop
      vertex -4.79611 -2.13537 0
      vertex -3.88257 -1.72863 0
      vertex -4.54663 -2.625 0
    endloop
  endfacet
  facet normal -0 0 -1
    outer loop
      vertex -3.88257 -1.72863 0
      vertex -4.79611 -2.13537 0
      vertex -4.04199 -1.31332 0
    endloop
  endfacet
  facet normal 0 0 -1
    outer loop
      vertex -4.99305 -1.62234 0
      vertex -4.04199 -1.31332 0
      vertex -4.79611 -2.13537 0
    endloop
  endfacet
  facet normal -0 0 -1
    outer loop
      vertex -4.04199 -1.31332 0
      vertex -4.99305 -1.62234 0
      vertex -4.15713 -0.883624 0
    endloop
  endfacet
  facet normal 0 0 -1
    outer loop
      vertex 4.04199 1.31332 0
      vertex 4.99305 1.62234 0
      vertex 4.15713 0.883624 0
    endloop
  endfacet
  facet normal -0 0 -1
    outer loop
      vertex 4.99305 1.62234 0
      vertex 4.04199 1.31332 0
      vertex 4.79611 2.13537 0
    endloop
  endfacet
  facet normal 0 0 -1
    outer loop
      vertex 3.88257 1.72863 0
      vertex 4.79611 2.13537 0
      vertex 4.04199 1.31332 0
    endloop
  endfacet
  facet normal -0 0 -1
    outer loop
      vertex 4.79611 2.13537 0
      vertex 3.88257 1.72863 0
      vertex 4.54663 2.625 0
    endloop
  endfacet
  facet normal 0 0 -1
    outer loop
      vertex 3.68061 2.125 0
      vertex 4.54663 2.625 0
      vertex 3.88257 1.72863 0
    endloop
  endfacet
  facet normal -0 0 -1
    outer loop
      vertex 4.54663 2.625 0
      vertex 3.68061 2.125 0
      vertex 4.24734 3.08587 0
    endloop
  endfacet
  facet normal 0 0 -1
    outer loop
      vertex 3.43832 2.49809 0
      vertex 4.24734 3.08587 0
      vertex 3.68061 2.125 0
    endloop
  endfacet
  facet normal -0 0 -1
    outer loop
      vertex 4.24734 3.08587 0
      vertex 3.43832 2.49809 0
      vertex 3.90151 3.51294 0
    endloop
  endfacet
  facet normal 0 0 -1
    outer loop
      vertex 3.15837 2.8438 0
      vertex 3.90151 3.51294 0
      vertex 3.43832 2.49809 0
    endloop
  endfacet
  facet normal -0 0 -1
    outer loop
      vertex 3.90151 3.51294 0
      vertex 3.15837 2.8438 0
      vertex 3.51294 3.90151 0
    endloop
  endfacet
  facet normal 0 0 -1
    outer loop
      vertex 2.8438 3.15837 0
      vertex 3.51294 3.90151 0
      vertex 3.15837 2.8438 0
    endloop
  endfacet
  facet normal -0 0 -1
    outer loop
      vertex 3.51294 3.90151 0
      vertex 2.8438 3.15837 0
      vertex 3.08587 4.24734 0
    endloop
  endfacet
  facet normal 0 0 -1
    outer loop
      vertex 2.49809 3.43832 0
      vertex 3.08587 4.24734 0
      vertex 2.8438 3.15837 0
    endloop
  endfacet
  facet normal -0 0 -1
    outer loop
      vertex 3.08587 4.24734 0
      vertex 2.49809 3.43832 0
      vertex 2.625 4.54663 0
    endloop
  endfacet
  facet normal 0 0 -1
    outer loop
      vertex 2.125 3.68061 0
      vertex 2.625 4.54663 0
      vertex 2.49809 3.43832 0
    endloop
  endfacet
  facet normal -0 0 -1
    outer loop
      vertex 2.625 4.54663 0
      vertex 2.125 3.68061 0
      vertex 2.13537 4.79611 0
    endloop
  endfacet
  facet normal 0 0 -1
    outer loop
      vertex 1.72863 3.88257 0
      vertex 2.13537 4.79611 0
      vertex 2.125 3.68061 0
    endloop
  endfacet
  facet normal 0 0 -1
    outer loop
      vertex 1.72863 3.88257 0
      vertex 1.62234 4.99305 0
      vertex 2.13537 4.79611 0
    endloop
  endfacet
  facet normal 0 0 -1
    outer loop
      vertex 1.31332 4.04199 0
      vertex 1.62234 4.99305 0
      vertex 1.72863 3.88257 0
    endloop
  endfacet
  facet normal 0 0 -1
    outer loop
      vertex 1.31332 4.04199 0
      vertex 1.09154 5.13527 0
      vertex 1.62234 4.99305 0
    endloop
  endfacet
  facet normal 0 0 -1
    outer loop
      vertex 0.883624 4.15713 0
      vertex 1.09154 5.13527 0
      vertex 1.31332 4.04199 0
    endloop
  endfacet
  facet normal 0 0 -1
    outer loop
      vertex 0.883624 4.15713 0
      vertex 0.548774 5.22124 0
      vertex 1.09154 5.13527 0
    endloop
  endfacet
  facet normal 0 0 -1
    outer loop
      vertex 0.444245 4.22672 0
      vertex 0.548774 5.22124 0
      vertex 0.883624 4.15713 0
    endloop
  endfacet
  facet normal 0 0 -1
    outer loop
      vertex 0 4.25 0
      vertex 0.548774 5.22124 0
      vertex 0.444245 4.22672 0
    endloop
  endfacet
  facet normal 0 0 -1
    outer loop
      vertex 0 4.25 0
      vertex 0 5.25 0
      vertex 0.548774 5.22124 0
    endloop
  endfacet
  facet normal 0 0 -1
    outer loop
      vertex -0.444245 4.22672 0
      vertex 0 5.25 0
      vertex 0 4.25 0
    endloop
  endfacet
  facet normal 0 0 -1
    outer loop
      vertex -0.444245 4.22672 0
      vertex -0.548774 5.22124 0
      vertex 0 5.25 0
    endloop
  endfacet
  facet normal 0 0 -1
    outer loop
      vertex -0.883624 4.15713 0
      vertex -0.548774 5.22124 0
      vertex -0.444245 4.22672 0
    endloop
  endfacet
  facet normal 0 0 -1
    outer loop
      vertex -0.883624 4.15713 0
      vertex -1.09154 5.13527 0
      vertex -0.548774 5.22124 0
    endloop
  endfacet
  facet normal 0 0 -1
    outer loop
      vertex -1.31332 4.04199 0
      vertex -1.09154 5.13527 0
      vertex -0.883624 4.15713 0
    endloop
  endfacet
  facet normal 0 0 -1
    outer loop
      vertex -1.31332 4.04199 0
      vertex -1.62234 4.99305 0
      vertex -1.09154 5.13527 0
    endloop
  endfacet
  facet normal 0 0 -1
    outer loop
      vertex -1.72863 3.88257 0
      vertex -1.62234 4.99305 0
      vertex -1.31332 4.04199 0
    endloop
  endfacet
  facet normal 0 0 -1
    outer loop
      vertex -2.13537 4.79611 0
      vertex -1.72863 3.88257 0
      vertex -2.125 3.68061 0
    endloop
  endfacet
  facet normal 0 0 -1
    outer loop
      vertex -1.72863 3.88257 0
      vertex -2.13537 4.79611 0
      vertex -1.62234 4.99305 0
    endloop
  endfacet
  facet normal 0 0 -1
    outer loop
      vertex -2.625 4.54663 0
      vertex -2.125 3.68061 0
      vertex -2.49809 3.43832 0
    endloop
  endfacet
  facet normal 0 0 -1
    outer loop
      vertex -2.125 3.68061 0
      vertex -2.625 4.54663 0
      vertex -2.13537 4.79611 0
    endloop
  endfacet
  facet normal 0 0 -1
    outer loop
      vertex -3.08587 4.24734 0
      vertex -2.49809 3.43832 0
      vertex -2.8438 3.15837 0
    endloop
  endfacet
  facet normal 0 0 -1
    outer loop
      vertex -2.49809 3.43832 0
      vertex -3.08587 4.24734 0
      vertex -2.625 4.54663 0
    endloop
  endfacet
  facet normal 0 0 -1
    outer loop
      vertex -3.51294 3.90151 0
      vertex -2.8438 3.15837 0
      vertex -3.15837 2.8438 0
    endloop
  endfacet
  facet normal 0 0 -1
    outer loop
      vertex -3.90151 3.51294 0
      vertex -3.15837 2.8438 0
      vertex -3.43832 2.49809 0
    endloop
  endfacet
  facet normal 0 0 -1
    outer loop
      vertex -2.8438 3.15837 0
      vertex -3.51294 3.90151 0
      vertex -3.08587 4.24734 0
    endloop
  endfacet
  facet normal 0 0 -1
    outer loop
      vertex -4.24734 3.08587 0
      vertex -3.43832 2.49809 0
      vertex -3.68061 2.125 0
    endloop
  endfacet
  facet normal 0 0 -1
    outer loop
      vertex -4.54663 2.625 0
      vertex -3.68061 2.125 0
      vertex -3.88257 1.72863 0
    endloop
  endfacet
  facet normal 0 0 -1
    outer loop
      vertex -3.15837 2.8438 0
      vertex -3.90151 3.51294 0
      vertex -3.51294 3.90151 0
    endloop
  endfacet
  facet normal 0 0 -1
    outer loop
      vertex -4.79611 2.13537 0
      vertex -3.88257 1.72863 0
      vertex -4.04199 1.31332 0
    endloop
  endfacet
  facet normal 0 0 -1
    outer loop
      vertex -4.99305 1.62234 0
      vertex -4.04199 1.31332 0
      vertex -4.15713 0.883624 0
    endloop
  endfacet
  facet normal 0 0 -1
    outer loop
      vertex -5.13527 1.09154 0
      vertex -4.15713 0.883624 0
      vertex -4.22672 0.444245 0
    endloop
  endfacet
  facet normal 0 0 -1
    outer loop
      vertex -3.43832 2.49809 0
      vertex -4.24734 3.08587 0
      vertex -3.90151 3.51294 0
    endloop
  endfacet
  facet normal 0 0 -1
    outer loop
      vertex -5.22124 0.548774 0
      vertex -4.22672 0.444245 0
      vertex -4.25 0 0
    endloop
  endfacet
  facet normal 0 0 -1
    outer loop
      vertex -5.13527 -1.09154 0
      vertex -4.15713 -0.883624 0
      vertex -4.99305 -1.62234 0
    endloop
  endfacet
  facet normal 0 0 -1
    outer loop
      vertex -3.68061 2.125 0
      vertex -4.54663 2.625 0
      vertex -4.24734 3.08587 0
    endloop
  endfacet
  facet normal -0 0 -1
    outer loop
      vertex -4.15713 -0.883624 0
      vertex -5.13527 -1.09154 0
      vertex -4.22672 -0.444245 0
    endloop
  endfacet
  facet normal 0 0 -1
    outer loop
      vertex -3.88257 1.72863 0
      vertex -4.79611 2.13537 0
      vertex -4.54663 2.625 0
    endloop
  endfacet
  facet normal 0 0 -1
    outer loop
      vertex -5.22124 -0.548774 0
      vertex -4.22672 -0.444245 0
      vertex -5.13527 -1.09154 0
    endloop
  endfacet
  facet normal 0 0 -1
    outer loop
      vertex -4.04199 1.31332 0
      vertex -4.99305 1.62234 0
      vertex -4.79611 2.13537 0
    endloop
  endfacet
  facet normal -0 0 -1
    outer loop
      vertex -4.22672 -0.444245 0
      vertex -5.22124 -0.548774 0
      vertex -4.25 0 0
    endloop
  endfacet
  facet normal 0 0 -1
    outer loop
      vertex -4.15713 0.883624 0
      vertex -5.13527 1.09154 0
      vertex -4.99305 1.62234 0
    endloop
  endfacet
  facet normal 0 0 -1
    outer loop
      vertex -5.25 0 0
      vertex -4.25 0 0
      vertex -5.22124 -0.548774 0
    endloop
  endfacet
  facet normal 0 0 -1
    outer loop
      vertex -4.22672 0.444245 0
      vertex -5.22124 0.548774 0
      vertex -5.13527 1.09154 0
    endloop
  endfacet
  facet normal 0 0 -1
    outer loop
      vertex -4.25 0 0
      vertex -5.25 0 0
      vertex -5.22124 0.548774 0
    endloop
  endfacet
  facet normal 0.965925 0.258821 0
    outer loop
      vertex 5.13527 1.09154 12.5
      vertex 4.99305 1.62234 0
      vertex 4.99305 1.62234 12.5
    endloop
  endfacet
  facet normal 0.965925 0.258821 0
    outer loop
      vertex 4.99305 1.62234 0
      vertex 5.13527 1.09154 12.5
      vertex 5.13527 1.09154 0
    endloop
  endfacet
  facet normal 0.83867 0.544639 0
    outer loop
      vertex 4.54663 2.625 12.5
      vertex 4.24734 3.08587 0
      vertex 4.24734 3.08587 12.5
    endloop
  endfacet
  facet normal 0.83867 0.544639 0
    outer loop
      vertex 4.24734 3.08587 0
      vertex 4.54663 2.625 12.5
      vertex 4.54663 2.625 0
    endloop
  endfacet
  facet normal 0.777147 0.629319 0
    outer loop
      vertex 4.24734 3.08587 12.5
      vertex 3.90151 3.51294 0
      vertex 3.90151 3.51294 12.5
    endloop
  endfacet
  facet normal 0.777147 0.629319 0
    outer loop
      vertex 3.90151 3.51294 0
      vertex 4.24734 3.08587 12.5
      vertex 4.24734 3.08587 0
    endloop
  endfacet
  facet normal 0.891007 0.45399 0
    outer loop
      vertex 4.79611 2.13537 12.5
      vertex 4.54663 2.625 0
      vertex 4.54663 2.625 12.5
    endloop
  endfacet
  facet normal 0.891007 0.45399 0
    outer loop
      vertex 4.54663 2.625 0
      vertex 4.79611 2.13537 12.5
      vertex 4.79611 2.13537 0
    endloop
  endfacet
  facet normal 0.258821 0.965925 -0
    outer loop
      vertex 1.62234 4.99305 0
      vertex 1.09154 5.13527 12.5
      vertex 1.62234 4.99305 12.5
    endloop
  endfacet
  facet normal 0.258821 0.965925 0
    outer loop
      vertex 1.09154 5.13527 12.5
      vertex 1.62234 4.99305 0
      vertex 1.09154 5.13527 0
    endloop
  endfacet
  facet normal 0.156433 0.987689 -0
    outer loop
      vertex 1.09154 5.13527 0
      vertex 0.548774 5.22124 12.5
      vertex 1.09154 5.13527 12.5
    endloop
  endfacet
  facet normal 0.156433 0.987689 0
    outer loop
      vertex 0.548774 5.22124 12.5
      vertex 1.09154 5.13527 0
      vertex 0.548774 5.22124 0
    endloop
  endfacet
  facet normal 0.629319 0.777147 -0
    outer loop
      vertex 3.51294 3.90151 0
      vertex 3.08587 4.24734 12.5
      vertex 3.51294 3.90151 12.5
    endloop
  endfacet
  facet normal 0.629319 0.777147 0
    outer loop
      vertex 3.08587 4.24734 12.5
      vertex 3.51294 3.90151 0
      vertex 3.08587 4.24734 0
    endloop
  endfacet
  facet normal -0.965925 0.258821 0
    outer loop
      vertex -5.13527 1.09154 0
      vertex -4.99305 1.62234 12.5
      vertex -4.99305 1.62234 0
    endloop
  endfacet
  facet normal -0.965925 0.258821 0
    outer loop
      vertex -4.99305 1.62234 12.5
      vertex -5.13527 1.09154 0
      vertex -5.13527 1.09154 12.5
    endloop
  endfacet
  facet normal -0.707107 0.707107 0
    outer loop
      vertex -3.90151 3.51294 0
      vertex -3.51294 3.90151 12.5
      vertex -3.51294 3.90151 0
    endloop
  endfacet
  facet normal -0.707107 0.707107 0
    outer loop
      vertex -3.51294 3.90151 12.5
      vertex -3.90151 3.51294 0
      vertex -3.90151 3.51294 12.5
    endloop
  endfacet
  facet normal -0.891007 0.45399 0
    outer loop
      vertex -4.79611 2.13537 0
      vertex -4.54663 2.625 12.5
      vertex -4.54663 2.625 0
    endloop
  endfacet
  facet normal -0.891007 0.45399 0
    outer loop
      vertex -4.54663 2.625 12.5
      vertex -4.79611 2.13537 0
      vertex -4.79611 2.13537 12.5
    endloop
  endfacet
  facet normal -0.987689 0.156433 0
    outer loop
      vertex -5.22124 0.548774 0
      vertex -5.13527 1.09154 12.5
      vertex -5.13527 1.09154 0
    endloop
  endfacet
  facet normal -0.987689 0.156433 0
    outer loop
      vertex -5.13527 1.09154 12.5
      vertex -5.22124 0.548774 0
      vertex -5.22124 0.548774 12.5
    endloop
  endfacet
  facet normal 0 0 1
    outer loop
      vertex 4.25 0 12.5
      vertex 5.25 0 12.5
      vertex 5.22124 0.548774 12.5
    endloop
  endfacet
  facet normal 0 0 1
    outer loop
      vertex 4.22672 0.444245 12.5
      vertex 5.22124 0.548774 12.5
      vertex 5.13527 1.09154 12.5
    endloop
  endfacet
  facet normal 0 0 1
    outer loop
      vertex 5.25 0 12.5
      vertex 4.25 0 12.5
      vertex 5.22124 -0.548774 12.5
    endloop
  endfacet
  facet normal 0 0 1
    outer loop
      vertex 4.15713 0.883624 12.5
      vertex 5.13527 1.09154 12.5
      vertex 4.99305 1.62234 12.5
    endloop
  endfacet
  facet normal -0 0 1
    outer loop
      vertex 4.22672 -0.444245 12.5
      vertex 5.22124 -0.548774 12.5
      vertex 4.25 0 12.5
    endloop
  endfacet
  facet normal 0 0 1
    outer loop
      vertex 4.04199 1.31332 12.5
      vertex 4.99305 1.62234 12.5
      vertex 4.79611 2.13537 12.5
    endloop
  endfacet
  facet normal 0 0 1
    outer loop
      vertex 5.22124 -0.548774 12.5
      vertex 4.22672 -0.444245 12.5
      vertex 5.13527 -1.09154 12.5
    endloop
  endfacet
  facet normal 0 0 1
    outer loop
      vertex 3.88257 1.72863 12.5
      vertex 4.79611 2.13537 12.5
      vertex 4.54663 2.625 12.5
    endloop
  endfacet
  facet normal -0 0 1
    outer loop
      vertex 4.15713 -0.883624 12.5
      vertex 5.13527 -1.09154 12.5
      vertex 4.22672 -0.444245 12.5
    endloop
  endfacet
  facet normal 0 0 1
    outer loop
      vertex 5.13527 -1.09154 12.5
      vertex 4.15713 -0.883624 12.5
      vertex 4.99305 -1.62234 12.5
    endloop
  endfacet
  facet normal 0 0 1
    outer loop
      vertex 3.68061 2.125 12.5
      vertex 4.54663 2.625 12.5
      vertex 4.24734 3.08587 12.5
    endloop
  endfacet
  facet normal 0 0 1
    outer loop
      vertex 5.22124 0.548774 12.5
      vertex 4.22672 0.444245 12.5
      vertex 4.25 0 12.5
    endloop
  endfacet
  facet normal 0 0 1
    outer loop
      vertex 5.13527 1.09154 12.5
      vertex 4.15713 0.883624 12.5
      vertex 4.22672 0.444245 12.5
    endloop
  endfacet
  facet normal 0 0 1
    outer loop
      vertex 4.99305 1.62234 12.5
      vertex 4.04199 1.31332 12.5
      vertex 4.15713 0.883624 12.5
    endloop
  endfacet
  facet normal 0 0 1
    outer loop
      vertex 3.43832 2.49809 12.5
      vertex 4.24734 3.08587 12.5
      vertex 3.90151 3.51294 12.5
    endloop
  endfacet
  facet normal 0 0 1
    outer loop
      vertex 4.79611 2.13537 12.5
      vertex 3.88257 1.72863 12.5
      vertex 4.04199 1.31332 12.5
    endloop
  endfacet
  facet normal 0 0 1
    outer loop
      vertex 4.54663 2.625 12.5
      vertex 3.68061 2.125 12.5
      vertex 3.88257 1.72863 12.5
    endloop
  endfacet
  facet normal 0 0 1
    outer loop
      vertex 3.15837 2.8438 12.5
      vertex 3.90151 3.51294 12.5
      vertex 3.51294 3.90151 12.5
    endloop
  endfacet
  facet normal 0 0 1
    outer loop
      vertex 4.24734 3.08587 12.5
      vertex 3.43832 2.49809 12.5
      vertex 3.68061 2.125 12.5
    endloop
  endfacet
  facet normal 0 0 1
    outer loop
      vertex 3.90151 3.51294 12.5
      vertex 3.15837 2.8438 12.5
      vertex 3.43832 2.49809 12.5
    endloop
  endfacet
  facet normal 0 0 1
    outer loop
      vertex 2.8438 3.15837 12.5
      vertex 3.51294 3.90151 12.5
      vertex 3.08587 4.24734 12.5
    endloop
  endfacet
  facet normal 0 0 1
    outer loop
      vertex 3.51294 3.90151 12.5
      vertex 2.8438 3.15837 12.5
      vertex 3.15837 2.8438 12.5
    endloop
  endfacet
  facet normal 0 0 1
    outer loop
      vertex 2.49809 3.43832 12.5
      vertex 3.08587 4.24734 12.5
      vertex 2.625 4.54663 12.5
    endloop
  endfacet
  facet normal 0 0 1
    outer loop
      vertex 3.08587 4.24734 12.5
      vertex 2.49809 3.43832 12.5
      vertex 2.8438 3.15837 12.5
    endloop
  endfacet
  facet normal 0 0 1
    outer loop
      vertex 2.125 3.68061 12.5
      vertex 2.625 4.54663 12.5
      vertex 2.13537 4.79611 12.5
    endloop
  endfacet
  facet normal 0 0 1
    outer loop
      vertex 2.625 4.54663 12.5
      vertex 2.125 3.68061 12.5
      vertex 2.49809 3.43832 12.5
    endloop
  endfacet
  facet normal 0 0 1
    outer loop
      vertex 2.13537 4.79611 12.5
      vertex 1.72863 3.88257 12.5
      vertex 2.125 3.68061 12.5
    endloop
  endfacet
  facet normal 0 0 1
    outer loop
      vertex 1.62234 4.99305 12.5
      vertex 1.72863 3.88257 12.5
      vertex 2.13537 4.79611 12.5
    endloop
  endfacet
  facet normal 0 0 1
    outer loop
      vertex 1.62234 4.99305 12.5
      vertex 1.31332 4.04199 12.5
      vertex 1.72863 3.88257 12.5
    endloop
  endfacet
  facet normal 0 0 1
    outer loop
      vertex 1.09154 5.13527 12.5
      vertex 1.31332 4.04199 12.5
      vertex 1.62234 4.99305 12.5
    endloop
  endfacet
  facet normal 0 0 1
    outer loop
      vertex 1.09154 5.13527 12.5
      vertex 0.883624 4.15713 12.5
      vertex 1.31332 4.04199 12.5
    endloop
  endfacet
  facet normal 0 0 1
    outer loop
      vertex 0.548774 5.22124 12.5
      vertex 0.883624 4.15713 12.5
      vertex 1.09154 5.13527 12.5
    endloop
  endfacet
  facet normal 0 0 1
    outer loop
      vertex 0.548774 5.22124 12.5
      vertex 0.444245 4.22672 12.5
      vertex 0.883624 4.15713 12.5
    endloop
  endfacet
  facet normal 0 0 1
    outer loop
      vertex 0 5.25 12.5
      vertex 0.444245 4.22672 12.5
      vertex 0.548774 5.22124 12.5
    endloop
  endfacet
  facet normal 0 0 1
    outer loop
      vertex 0 5.25 12.5
      vertex 0 4.25 12.5
      vertex 0.444245 4.22672 12.5
    endloop
  endfacet
  facet normal 0 0 1
    outer loop
      vertex 0 5.25 12.5
      vertex -0.444245 4.22672 12.5
      vertex 0 4.25 12.5
    endloop
  endfacet
  facet normal -0 0 1
    outer loop
      vertex -0.548774 5.22124 12.5
      vertex -0.444245 4.22672 12.5
      vertex 0 5.25 12.5
    endloop
  endfacet
  facet normal 0 0 1
    outer loop
      vertex -0.548774 5.22124 12.5
      vertex -0.883624 4.15713 12.5
      vertex -0.444245 4.22672 12.5
    endloop
  endfacet
  facet normal -0 0 1
    outer loop
      vertex -1.09154 5.13527 12.5
      vertex -0.883624 4.15713 12.5
      vertex -0.548774 5.22124 12.5
    endloop
  endfacet
  facet normal 0 0 1
    outer loop
      vertex -1.09154 5.13527 12.5
      vertex -1.31332 4.04199 12.5
      vertex -0.883624 4.15713 12.5
    endloop
  endfacet
  facet normal -0 0 1
    outer loop
      vertex -1.62234 4.99305 12.5
      vertex -1.31332 4.04199 12.5
      vertex -1.09154 5.13527 12.5
    endloop
  endfacet
  facet normal 0 0 1
    outer loop
      vertex -1.62234 4.99305 12.5
      vertex -1.72863 3.88257 12.5
      vertex -1.31332 4.04199 12.5
    endloop
  endfacet
  facet normal -0 0 1
    outer loop
      vertex -2.13537 4.79611 12.5
      vertex -1.72863 3.88257 12.5
      vertex -1.62234 4.99305 12.5
    endloop
  endfacet
  facet normal 0 0 1
    outer loop
      vertex -1.72863 3.88257 12.5
      vertex -2.13537 4.79611 12.5
      vertex -2.125 3.68061 12.5
    endloop
  endfacet
  facet normal -0 0 1
    outer loop
      vertex -2.625 4.54663 12.5
      vertex -2.125 3.68061 12.5
      vertex -2.13537 4.79611 12.5
    endloop
  endfacet
  facet normal 0 0 1
    outer loop
      vertex -2.125 3.68061 12.5
      vertex -2.625 4.54663 12.5
      vertex -2.49809 3.43832 12.5
    endloop
  endfacet
  facet normal -0 0 1
    outer loop
      vertex -3.08587 4.24734 12.5
      vertex -2.49809 3.43832 12.5
      vertex -2.625 4.54663 12.5
    endloop
  endfacet
  facet normal 0 0 1
    outer loop
      vertex -2.49809 3.43832 12.5
      vertex -3.08587 4.24734 12.5
      vertex -2.8438 3.15837 12.5
    endloop
  endfacet
  facet normal -0 0 1
    outer loop
      vertex -3.51294 3.90151 12.5
      vertex -2.8438 3.15837 12.5
      vertex -3.08587 4.24734 12.5
    endloop
  endfacet
  facet normal 0 0 1
    outer loop
      vertex -2.8438 3.15837 12.5
      vertex -3.51294 3.90151 12.5
      vertex -3.15837 2.8438 12.5
    endloop
  endfacet
  facet normal -0 0 1
    outer loop
      vertex -3.90151 3.51294 12.5
      vertex -3.15837 2.8438 12.5
      vertex -3.51294 3.90151 12.5
    endloop
  endfacet
  facet normal 0 0 1
    outer loop
      vertex -3.15837 2.8438 12.5
      vertex -3.90151 3.51294 12.5
      vertex -3.43832 2.49809 12.5
    endloop
  endfacet
  facet normal -0 0 1
    outer loop
      vertex -4.24734 3.08587 12.5
      vertex -3.43832 2.49809 12.5
      vertex -3.90151 3.51294 12.5
    endloop
  endfacet
  facet normal 0 0 1
    outer loop
      vertex -3.43832 2.49809 12.5
      vertex -4.24734 3.08587 12.5
      vertex -3.68061 2.125 12.5
    endloop
  endfacet
  facet normal -0 0 1
    outer loop
      vertex -4.54663 2.625 12.5
      vertex -3.68061 2.125 12.5
      vertex -4.24734 3.08587 12.5
    endloop
  endfacet
  facet normal 0 0 1
    outer loop
      vertex -3.68061 2.125 12.5
      vertex -4.54663 2.625 12.5
      vertex -3.88257 1.72863 12.5
    endloop
  endfacet
  facet normal -0 0 1
    outer loop
      vertex -4.79611 2.13537 12.5
      vertex -3.88257 1.72863 12.5
      vertex -4.54663 2.625 12.5
    endloop
  endfacet
  facet normal 0 0 1
    outer loop
      vertex -3.88257 1.72863 12.5
      vertex -4.79611 2.13537 12.5
      vertex -4.04199 1.31332 12.5
    endloop
  endfacet
  facet normal -0 0 1
    outer loop
      vertex -4.99305 1.62234 12.5
      vertex -4.04199 1.31332 12.5
      vertex -4.79611 2.13537 12.5
    endloop
  endfacet
  facet normal 0 0 1
    outer loop
      vertex -4.04199 1.31332 12.5
      vertex -4.99305 1.62234 12.5
      vertex -4.15713 0.883624 12.5
    endloop
  endfacet
  facet normal -0 0 1
    outer loop
      vertex 4.04199 -1.31332 12.5
      vertex 4.99305 -1.62234 12.5
      vertex 4.15713 -0.883624 12.5
    endloop
  endfacet
  facet normal 0 0 1
    outer loop
      vertex 4.99305 -1.62234 12.5
      vertex 4.04199 -1.31332 12.5
      vertex 4.79611 -2.13537 12.5
    endloop
  endfacet
  facet normal -0 0 1
    outer loop
      vertex 3.88257 -1.72863 12.5
      vertex 4.79611 -2.13537 12.5
      vertex 4.04199 -1.31332 12.5
    endloop
  endfacet
  facet normal 0 0 1
    outer loop
      vertex 4.79611 -2.13537 12.5
      vertex 3.88257 -1.72863 12.5
      vertex 4.54663 -2.625 12.5
    endloop
  endfacet
  facet normal -0 0 1
    outer loop
      vertex 3.68061 -2.125 12.5
      vertex 4.54663 -2.625 12.5
      vertex 3.88257 -1.72863 12.5
    endloop
  endfacet
  facet normal 0 0 1
    outer loop
      vertex 4.54663 -2.625 12.5
      vertex 3.68061 -2.125 12.5
      vertex 4.24734 -3.08587 12.5
    endloop
  endfacet
  facet normal -0 0 1
    outer loop
      vertex 3.43832 -2.49809 12.5
      vertex 4.24734 -3.08587 12.5
      vertex 3.68061 -2.125 12.5
    endloop
  endfacet
  facet normal 0 0 1
    outer loop
      vertex 4.24734 -3.08587 12.5
      vertex 3.43832 -2.49809 12.5
      vertex 3.90151 -3.51294 12.5
    endloop
  endfacet
  facet normal -0 0 1
    outer loop
      vertex 3.15837 -2.8438 12.5
      vertex 3.90151 -3.51294 12.5
      vertex 3.43832 -2.49809 12.5
    endloop
  endfacet
  facet normal 0 0 1
    outer loop
      vertex 3.90151 -3.51294 12.5
      vertex 3.15837 -2.8438 12.5
      vertex 3.51294 -3.90151 12.5
    endloop
  endfacet
  facet normal -0 0 1
    outer loop
      vertex 2.8438 -3.15837 12.5
      vertex 3.51294 -3.90151 12.5
      vertex 3.15837 -2.8438 12.5
    endloop
  endfacet
  facet normal 0 0 1
    outer loop
      vertex 3.51294 -3.90151 12.5
      vertex 2.8438 -3.15837 12.5
      vertex 3.08587 -4.24734 12.5
    endloop
  endfacet
  facet normal -0 0 1
    outer loop
      vertex 2.49809 -3.43832 12.5
      vertex 3.08587 -4.24734 12.5
      vertex 2.8438 -3.15837 12.5
    endloop
  endfacet
  facet normal 0 0 1
    outer loop
      vertex 3.08587 -4.24734 12.5
      vertex 2.49809 -3.43832 12.5
      vertex 2.625 -4.54663 12.5
    endloop
  endfacet
  facet normal -0 0 1
    outer loop
      vertex 2.125 -3.68061 12.5
      vertex 2.625 -4.54663 12.5
      vertex 2.49809 -3.43832 12.5
    endloop
  endfacet
  facet normal 0 0 1
    outer loop
      vertex 2.625 -4.54663 12.5
      vertex 2.125 -3.68061 12.5
      vertex 2.13537 -4.79611 12.5
    endloop
  endfacet
  facet normal -0 0 1
    outer loop
      vertex 1.72863 -3.88257 12.5
      vertex 2.13537 -4.79611 12.5
      vertex 2.125 -3.68061 12.5
    endloop
  endfacet
  facet normal 0 0 1
    outer loop
      vertex 1.72863 -3.88257 12.5
      vertex 1.62234 -4.99305 12.5
      vertex 2.13537 -4.79611 12.5
    endloop
  endfacet
  facet normal -0 0 1
    outer loop
      vertex 1.31332 -4.04199 12.5
      vertex 1.62234 -4.99305 12.5
      vertex 1.72863 -3.88257 12.5
    endloop
  endfacet
  facet normal 0 0 1
    outer loop
      vertex 1.31332 -4.04199 12.5
      vertex 1.09154 -5.13527 12.5
      vertex 1.62234 -4.99305 12.5
    endloop
  endfacet
  facet normal -0 0 1
    outer loop
      vertex 0.883624 -4.15713 12.5
      vertex 1.09154 -5.13527 12.5
      vertex 1.31332 -4.04199 12.5
    endloop
  endfacet
  facet normal 0 0 1
    outer loop
      vertex 0.883624 -4.15713 12.5
      vertex 0.548774 -5.22124 12.5
      vertex 1.09154 -5.13527 12.5
    endloop
  endfacet
  facet normal -0 0 1
    outer loop
      vertex 0.444245 -4.22672 12.5
      vertex 0.548774 -5.22124 12.5
      vertex 0.883624 -4.15713 12.5
    endloop
  endfacet
  facet normal -0 0 1
    outer loop
      vertex 0 -4.25 12.5
      vertex 0.548774 -5.22124 12.5
      vertex 0.444245 -4.22672 12.5
    endloop
  endfacet
  facet normal 0 0 1
    outer loop
      vertex 0 -4.25 12.5
      vertex 0 -5.25 12.5
      vertex 0.548774 -5.22124 12.5
    endloop
  endfacet
  facet normal 0 0 1
    outer loop
      vertex -0.444245 -4.22672 12.5
      vertex 0 -5.25 12.5
      vertex 0 -4.25 12.5
    endloop
  endfacet
  facet normal 0 0 1
    outer loop
      vertex -0.444245 -4.22672 12.5
      vertex -0.548774 -5.22124 12.5
      vertex 0 -5.25 12.5
    endloop
  endfacet
  facet normal 0 0 1
    outer loop
      vertex -0.883624 -4.15713 12.5
      vertex -0.548774 -5.22124 12.5
      vertex -0.444245 -4.22672 12.5
    endloop
  endfacet
  facet normal 0 0 1
    outer loop
      vertex -0.883624 -4.15713 12.5
      vertex -1.09154 -5.13527 12.5
      vertex -0.548774 -5.22124 12.5
    endloop
  endfacet
  facet normal 0 0 1
    outer loop
      vertex -1.31332 -4.04199 12.5
      vertex -1.09154 -5.13527 12.5
      vertex -0.883624 -4.15713 12.5
    endloop
  endfacet
  facet normal 0 0 1
    outer loop
      vertex -1.31332 -4.04199 12.5
      vertex -1.62234 -4.99305 12.5
      vertex -1.09154 -5.13527 12.5
    endloop
  endfacet
  facet normal 0 0 1
    outer loop
      vertex -1.72863 -3.88257 12.5
      vertex -1.62234 -4.99305 12.5
      vertex -1.31332 -4.04199 12.5
    endloop
  endfacet
  facet normal 0 0 1
    outer loop
      vertex -2.13537 -4.79611 12.5
      vertex -1.72863 -3.88257 12.5
      vertex -2.125 -3.68061 12.5
    endloop
  endfacet
  facet normal 0 0 1
    outer loop
      vertex -1.72863 -3.88257 12.5
      vertex -2.13537 -4.79611 12.5
      vertex -1.62234 -4.99305 12.5
    endloop
  endfacet
  facet normal 0 0 1
    outer loop
      vertex -2.625 -4.54663 12.5
      vertex -2.125 -3.68061 12.5
      vertex -2.49809 -3.43832 12.5
    endloop
  endfacet
  facet normal 0 0 1
    outer loop
      vertex -2.125 -3.68061 12.5
      vertex -2.625 -4.54663 12.5
      vertex -2.13537 -4.79611 12.5
    endloop
  endfacet
  facet normal 0 0 1
    outer loop
      vertex -3.08587 -4.24734 12.5
      vertex -2.49809 -3.43832 12.5
      vertex -2.8438 -3.15837 12.5
    endloop
  endfacet
  facet normal 0 0 1
    outer loop
      vertex -2.49809 -3.43832 12.5
      vertex -3.08587 -4.24734 12.5
      vertex -2.625 -4.54663 12.5
    endloop
  endfacet
  facet normal 0 0 1
    outer loop
      vertex -3.51294 -3.90151 12.5
      vertex -2.8438 -3.15837 12.5
      vertex -3.15837 -2.8438 12.5
    endloop
  endfacet
  facet normal 0 0 1
    outer loop
      vertex -3.90151 -3.51294 12.5
      vertex -3.15837 -2.8438 12.5
      vertex -3.43832 -2.49809 12.5
    endloop
  endfacet
  facet normal 0 0 1
    outer loop
      vertex -2.8438 -3.15837 12.5
      vertex -3.51294 -3.90151 12.5
      vertex -3.08587 -4.24734 12.5
    endloop
  endfacet
  facet normal 0 0 1
    outer loop
      vertex -4.24734 -3.08587 12.5
      vertex -3.43832 -2.49809 12.5
      vertex -3.68061 -2.125 12.5
    endloop
  endfacet
  facet normal 0 0 1
    outer loop
      vertex -4.54663 -2.625 12.5
      vertex -3.68061 -2.125 12.5
      vertex -3.88257 -1.72863 12.5
    endloop
  endfacet
  facet normal 0 0 1
    outer loop
      vertex -3.15837 -2.8438 12.5
      vertex -3.90151 -3.51294 12.5
      vertex -3.51294 -3.90151 12.5
    endloop
  endfacet
  facet normal 0 0 1
    outer loop
      vertex -4.79611 -2.13537 12.5
      vertex -3.88257 -1.72863 12.5
      vertex -4.04199 -1.31332 12.5
    endloop
  endfacet
  facet normal 0 0 1
    outer loop
      vertex -4.99305 -1.62234 12.5
      vertex -4.04199 -1.31332 12.5
      vertex -4.15713 -0.883624 12.5
    endloop
  endfacet
  facet normal 0 0 1
    outer loop
      vertex -5.13527 -1.09154 12.5
      vertex -4.15713 -0.883624 12.5
      vertex -4.22672 -0.444245 12.5
    endloop
  endfacet
  facet normal 0 0 1
    outer loop
      vertex -3.43832 -2.49809 12.5
      vertex -4.24734 -3.08587 12.5
      vertex -3.90151 -3.51294 12.5
    endloop
  endfacet
  facet normal 0 0 1
    outer loop
      vertex -5.22124 -0.548774 12.5
      vertex -4.22672 -0.444245 12.5
      vertex -4.25 0 12.5
    endloop
  endfacet
  facet normal -0 0 1
    outer loop
      vertex -5.13527 1.09154 12.5
      vertex -4.15713 0.883624 12.5
      vertex -4.99305 1.62234 12.5
    endloop
  endfacet
  facet normal 0 0 1
    outer loop
      vertex -3.68061 -2.125 12.5
      vertex -4.54663 -2.625 12.5
      vertex -4.24734 -3.08587 12.5
    endloop
  endfacet
  facet normal 0 0 1
    outer loop
      vertex -4.15713 0.883624 12.5
      vertex -5.13527 1.09154 12.5
      vertex -4.22672 0.444245 12.5
    endloop
  endfacet
  facet normal 0 0 1
    outer loop
      vertex -3.88257 -1.72863 12.5
      vertex -4.79611 -2.13537 12.5
      vertex -4.54663 -2.625 12.5
    endloop
  endfacet
  facet normal -0 0 1
    outer loop
      vertex -5.22124 0.548774 12.5
      vertex -4.22672 0.444245 12.5
      vertex -5.13527 1.09154 12.5
    endloop
  endfacet
  facet normal 0 0 1
    outer loop
      vertex -4.04199 -1.31332 12.5
      vertex -4.99305 -1.62234 12.5
      vertex -4.79611 -2.13537 12.5
    endloop
  endfacet
  facet normal 0 0 1
    outer loop
      vertex -4.22672 0.444245 12.5
      vertex -5.22124 0.548774 12.5
      vertex -4.25 0 12.5
    endloop
  endfacet
  facet normal 0 0 1
    outer loop
      vertex -4.15713 -0.883624 12.5
      vertex -5.13527 -1.09154 12.5
      vertex -4.99305 -1.62234 12.5
    endloop
  endfacet
  facet normal 0 0 1
    outer loop
      vertex -5.25 0 12.5
      vertex -4.25 0 12.5
      vertex -5.22124 0.548774 12.5
    endloop
  endfacet
  facet normal 0 0 1
    outer loop
      vertex -4.22672 -0.444245 12.5
      vertex -5.22124 -0.548774 12.5
      vertex -5.13527 -1.09154 12.5
    endloop
  endfacet
  facet normal 0 0 1
    outer loop
      vertex -4.25 0 12.5
      vertex -5.25 0 12.5
      vertex -5.22124 -0.548774 12.5
    endloop
  endfacet
  facet normal -0.544639 0.83867 0
    outer loop
      vertex -2.625 4.54663 0
      vertex -3.08587 4.24734 12.5
      vertex -2.625 4.54663 12.5
    endloop
  endfacet
  facet normal -0.544639 0.83867 0
    outer loop
      vertex -3.08587 4.24734 12.5
      vertex -2.625 4.54663 0
      vertex -3.08587 4.24734 0
    endloop
  endfacet
  facet normal -0.258821 0.965925 0
    outer loop
      vertex -1.09154 5.13527 0
      vertex -1.62234 4.99305 12.5
      vertex -1.09154 5.13527 12.5
    endloop
  endfacet
  facet normal -0.258821 0.965925 0
    outer loop
      vertex -1.62234 4.99305 12.5
      vertex -1.09154 5.13527 0
      vertex -1.62234 4.99305 0
    endloop
  endfacet
  facet normal -0.0523376 0.998629 0
    outer loop
      vertex 0 5.25 0
      vertex -0.548774 5.22124 12.5
      vertex 0 5.25 12.5
    endloop
  endfacet
  facet normal -0.0523376 0.998629 0
    outer loop
      vertex -0.548774 5.22124 12.5
      vertex 0 5.25 0
      vertex -0.548774 5.22124 0
    endloop
  endfacet
  facet normal 0.998629 -0.0523376 0
    outer loop
      vertex 5.22124 -0.548774 12.5
      vertex 5.25 0 0
      vertex 5.25 0 12.5
    endloop
  endfacet
  facet normal 0.998629 -0.0523376 0
    outer loop
      vertex 5.25 0 0
      vertex 5.22124 -0.548774 12.5
      vertex 5.22124 -0.548774 0
    endloop
  endfacet
  facet normal 0.0523376 -0.998629 0
    outer loop
      vertex 0 -5.25 0
      vertex 0.548774 -5.22124 12.5
      vertex 0 -5.25 12.5
    endloop
  endfacet
  facet normal 0.0523376 -0.998629 0
    outer loop
      vertex 0.548774 -5.22124 12.5
      vertex 0 -5.25 0
      vertex 0.548774 -5.22124 0
    endloop
  endfacet
  facet normal 0.45399 -0.891007 0
    outer loop
      vertex 2.13537 -4.79611 0
      vertex 2.625 -4.54663 12.5
      vertex 2.13537 -4.79611 12.5
    endloop
  endfacet
  facet normal 0.45399 -0.891007 0
    outer loop
      vertex 2.625 -4.54663 12.5
      vertex 2.13537 -4.79611 0
      vertex 2.625 -4.54663 0
    endloop
  endfacet
  facet normal 0.629319 -0.777147 0
    outer loop
      vertex 3.08587 -4.24734 0
      vertex 3.51294 -3.90151 12.5
      vertex 3.08587 -4.24734 12.5
    endloop
  endfacet
  facet normal 0.629319 -0.777147 0
    outer loop
      vertex 3.51294 -3.90151 12.5
      vertex 3.08587 -4.24734 0
      vertex 3.51294 -3.90151 0
    endloop
  endfacet
  facet normal 0.54464 -0.83867 0
    outer loop
      vertex 2.625 -4.54663 0
      vertex 3.08587 -4.24734 12.5
      vertex 2.625 -4.54663 12.5
    endloop
  endfacet
  facet normal 0.54464 -0.83867 0
    outer loop
      vertex 3.08587 -4.24734 12.5
      vertex 2.625 -4.54663 0
      vertex 3.08587 -4.24734 0
    endloop
  endfacet
  facet normal 0.777147 -0.629319 0
    outer loop
      vertex 3.90151 -3.51294 12.5
      vertex 4.24734 -3.08587 0
      vertex 4.24734 -3.08587 12.5
    endloop
  endfacet
  facet normal 0.777147 -0.629319 0
    outer loop
      vertex 4.24734 -3.08587 0
      vertex 3.90151 -3.51294 12.5
      vertex 3.90151 -3.51294 0
    endloop
  endfacet
  facet normal 0.83867 -0.544639 0
    outer loop
      vertex 4.24734 -3.08587 12.5
      vertex 4.54663 -2.625 0
      vertex 4.54663 -2.625 12.5
    endloop
  endfacet
  facet normal 0.83867 -0.544639 0
    outer loop
      vertex 4.54663 -2.625 0
      vertex 4.24734 -3.08587 12.5
      vertex 4.24734 -3.08587 0
    endloop
  endfacet
  facet normal -0.707107 -0.707107 0
    outer loop
      vertex -3.51294 -3.90151 0
      vertex -3.90151 -3.51294 12.5
      vertex -3.90151 -3.51294 0
    endloop
  endfacet
  facet normal -0.707107 -0.707107 0
    outer loop
      vertex -3.90151 -3.51294 12.5
      vertex -3.51294 -3.90151 0
      vertex -3.51294 -3.90151 12.5
    endloop
  endfacet
  facet normal -0.629319 -0.777147 0
    outer loop
      vertex -3.51294 -3.90151 0
      vertex -3.08587 -4.24734 12.5
      vertex -3.51294 -3.90151 12.5
    endloop
  endfacet
  facet normal -0.629319 -0.777147 -0
    outer loop
      vertex -3.08587 -4.24734 12.5
      vertex -3.51294 -3.90151 0
      vertex -3.08587 -4.24734 0
    endloop
  endfacet
  facet normal -0.54464 -0.83867 0
    outer loop
      vertex -3.08587 -4.24734 0
      vertex -2.625 -4.54663 12.5
      vertex -3.08587 -4.24734 12.5
    endloop
  endfacet
  facet normal -0.54464 -0.83867 -0
    outer loop
      vertex -2.625 -4.54663 12.5
      vertex -3.08587 -4.24734 0
      vertex -2.625 -4.54663 0
    endloop
  endfacet
  facet normal -0.156433 -0.987689 0
    outer loop
      vertex -1.09154 -5.13527 0
      vertex -0.548774 -5.22124 12.5
      vertex -1.09154 -5.13527 12.5
    endloop
  endfacet
  facet normal -0.156433 -0.987689 -0
    outer loop
      vertex -0.548774 -5.22124 12.5
      vertex -1.09154 -5.13527 0
      vertex -0.548774 -5.22124 0
    endloop
  endfacet
  facet normal -0.777147 -0.629319 0
    outer loop
      vertex -3.90151 -3.51294 0
      vertex -4.24734 -3.08587 12.5
      vertex -4.24734 -3.08587 0
    endloop
  endfacet
  facet normal -0.777147 -0.629319 0
    outer loop
      vertex -4.24734 -3.08587 12.5
      vertex -3.90151 -3.51294 0
      vertex -3.90151 -3.51294 12.5
    endloop
  endfacet
  facet normal -0.998629 -0.0523376 0
    outer loop
      vertex -5.22124 -0.548774 0
      vertex -5.25 0 12.5
      vertex -5.25 0 0
    endloop
  endfacet
  facet normal -0.998629 -0.0523376 0
    outer loop
      vertex -5.25 0 12.5
      vertex -5.22124 -0.548774 0
      vertex -5.22124 -0.548774 12.5
    endloop
  endfacet
  facet normal 0.358368 0.933581 -0
    outer loop
      vertex 2.13537 4.79611 0
      vertex 1.62234 4.99305 12.5
      vertex 2.13537 4.79611 12.5
    endloop
  endfacet
  facet normal 0.358368 0.933581 0
    outer loop
      vertex 1.62234 4.99305 12.5
      vertex 2.13537 4.79611 0
      vertex 1.62234 4.99305 0
    endloop
  endfacet
  facet normal -0.933581 0.358368 0
    outer loop
      vertex -4.99305 1.62234 0
      vertex -4.79611 2.13537 12.5
      vertex -4.79611 2.13537 0
    endloop
  endfacet
  facet normal -0.933581 0.358368 0
    outer loop
      vertex -4.79611 2.13537 12.5
      vertex -4.99305 1.62234 0
      vertex -4.99305 1.62234 12.5
    endloop
  endfacet
  facet normal 0.156433 -0.987689 0
    outer loop
      vertex 0.548774 -5.22124 0
      vertex 1.09154 -5.13527 12.5
      vertex 0.548774 -5.22124 12.5
    endloop
  endfacet
  facet normal 0.156433 -0.987689 0
    outer loop
      vertex 1.09154 -5.13527 12.5
      vertex 0.548774 -5.22124 0
      vertex 1.09154 -5.13527 0
    endloop
  endfacet
  facet normal 0.358368 -0.933581 0
    outer loop
      vertex 1.62234 -4.99305 0
      vertex 2.13537 -4.79611 12.5
      vertex 1.62234 -4.99305 12.5
    endloop
  endfacet
  facet normal 0.358368 -0.933581 0
    outer loop
      vertex 2.13537 -4.79611 12.5
      vertex 1.62234 -4.99305 0
      vertex 2.13537 -4.79611 0
    endloop
  endfacet
  facet normal 0.933581 -0.358368 0
    outer loop
      vertex 4.79611 -2.13537 12.5
      vertex 4.99305 -1.62234 0
      vertex 4.99305 -1.62234 12.5
    endloop
  endfacet
  facet normal 0.933581 -0.358368 0
    outer loop
      vertex 4.99305 -1.62234 0
      vertex 4.79611 -2.13537 12.5
      vertex 4.79611 -2.13537 0
    endloop
  endfacet
  facet normal 0.987689 -0.156433 0
    outer loop
      vertex 5.13527 -1.09154 12.5
      vertex 5.22124 -0.548774 0
      vertex 5.22124 -0.548774 12.5
    endloop
  endfacet
  facet normal 0.987689 -0.156433 0
    outer loop
      vertex 5.22124 -0.548774 0
      vertex 5.13527 -1.09154 12.5
      vertex 5.13527 -1.09154 0
    endloop
  endfacet
  facet normal -0.45399 -0.891007 0
    outer loop
      vertex -2.625 -4.54663 0
      vertex -2.13537 -4.79611 12.5
      vertex -2.625 -4.54663 12.5
    endloop
  endfacet
  facet normal -0.45399 -0.891007 -0
    outer loop
      vertex -2.13537 -4.79611 12.5
      vertex -2.625 -4.54663 0
      vertex -2.13537 -4.79611 0
    endloop
  endfacet
  facet normal -0.258821 -0.965925 0
    outer loop
      vertex -1.62234 -4.99305 0
      vertex -1.09154 -5.13527 12.5
      vertex -1.62234 -4.99305 12.5
    endloop
  endfacet
  facet normal -0.258821 -0.965925 -0
    outer loop
      vertex -1.09154 -5.13527 12.5
      vertex -1.62234 -4.99305 0
      vertex -1.09154 -5.13527 0
    endloop
  endfacet
  facet normal -0.933581 -0.358368 0
    outer loop
      vertex -4.79611 -2.13537 0
      vertex -4.99305 -1.62234 12.5
      vertex -4.99305 -1.62234 0
    endloop
  endfacet
  facet normal -0.933581 -0.358368 0
    outer loop
      vertex -4.99305 -1.62234 12.5
      vertex -4.79611 -2.13537 0
      vertex -4.79611 -2.13537 12.5
    endloop
  endfacet
  facet normal -0.987689 -0.156433 0
    outer loop
      vertex -5.13527 -1.09154 0
      vertex -5.22124 -0.548774 12.5
      vertex -5.22124 -0.548774 0
    endloop
  endfacet
  facet normal -0.987689 -0.156433 0
    outer loop
      vertex -5.22124 -0.548774 12.5
      vertex -5.13527 -1.09154 0
      vertex -5.13527 -1.09154 12.5
    endloop
  endfacet
  facet normal -0.99863 -0.0523363 0
    outer loop
      vertex 4.25 0 0
      vertex 4.22672 0.444245 12.5
      vertex 4.22672 0.444245 0
    endloop
  endfacet
  facet normal -0.99863 -0.0523363 0
    outer loop
      vertex 4.22672 0.444245 12.5
      vertex 4.25 0 0
      vertex 4.25 0 12.5
    endloop
  endfacet
  facet normal 0.99863 -0.0523363 0
    outer loop
      vertex -4.25 0 12.5
      vertex -4.22672 0.444245 0
      vertex -4.22672 0.444245 12.5
    endloop
  endfacet
  facet normal 0.99863 -0.0523363 0
    outer loop
      vertex -4.22672 0.444245 0
      vertex -4.25 0 12.5
      vertex -4.25 0 0
    endloop
  endfacet
  facet normal -0.0523363 -0.99863 0
    outer loop
      vertex 0 4.25 0
      vertex 0.444245 4.22672 12.5
      vertex 0 4.25 12.5
    endloop
  endfacet
  facet normal -0.0523363 -0.99863 -0
    outer loop
      vertex 0.444245 4.22672 12.5
      vertex 0 4.25 0
      vertex 0.444245 4.22672 0
    endloop
  endfacet
  facet normal 0.0523363 0.99863 -0
    outer loop
      vertex 0 -4.25 0
      vertex -0.444245 -4.22672 12.5
      vertex 0 -4.25 12.5
    endloop
  endfacet
  facet normal 0.0523363 0.99863 0
    outer loop
      vertex -0.444245 -4.22672 12.5
      vertex 0 -4.25 0
      vertex -0.444245 -4.22672 0
    endloop
  endfacet
  facet normal 0.777146 0.629321 0
    outer loop
      vertex -3.15837 -2.8438 12.5
      vertex -3.43832 -2.49809 0
      vertex -3.43832 -2.49809 12.5
    endloop
  endfacet
  facet normal 0.777146 0.629321 0
    outer loop
      vertex -3.43832 -2.49809 0
      vertex -3.15837 -2.8438 12.5
      vertex -3.15837 -2.8438 0
    endloop
  endfacet
  facet normal -0.707107 -0.707107 0
    outer loop
      vertex 3.15837 2.8438 0
      vertex 2.8438 3.15837 12.5
      vertex 2.8438 3.15837 0
    endloop
  endfacet
  facet normal -0.707107 -0.707107 0
    outer loop
      vertex 2.8438 3.15837 12.5
      vertex 3.15837 2.8438 0
      vertex 3.15837 2.8438 12.5
    endloop
  endfacet
  facet normal 0.629321 -0.777146 0
    outer loop
      vertex -2.8438 3.15837 0
      vertex -2.49809 3.43832 12.5
      vertex -2.8438 3.15837 12.5
    endloop
  endfacet
  facet normal 0.629321 -0.777146 0
    outer loop
      vertex -2.49809 3.43832 12.5
      vertex -2.8438 3.15837 0
      vertex -2.49809 3.43832 0
    endloop
  endfacet
  facet normal 0.258819 -0.965926 0
    outer loop
      vertex -1.31332 4.04199 0
      vertex -0.883624 4.15713 12.5
      vertex -1.31332 4.04199 12.5
    endloop
  endfacet
  facet normal 0.258819 -0.965926 0
    outer loop
      vertex -0.883624 4.15713 12.5
      vertex -1.31332 4.04199 0
      vertex -0.883624 4.15713 0
    endloop
  endfacet
  facet normal -0.891007 -0.45399 0
    outer loop
      vertex 3.88257 1.72863 0
      vertex 3.68061 2.125 12.5
      vertex 3.68061 2.125 0
    endloop
  endfacet
  facet normal -0.891007 -0.45399 0
    outer loop
      vertex 3.68061 2.125 12.5
      vertex 3.88257 1.72863 0
      vertex 3.88257 1.72863 12.5
    endloop
  endfacet
  facet normal -0.838671 -0.544638 0
    outer loop
      vertex 3.68061 2.125 0
      vertex 3.43832 2.49809 12.5
      vertex 3.43832 2.49809 0
    endloop
  endfacet
  facet normal -0.838671 -0.544638 0
    outer loop
      vertex 3.43832 2.49809 12.5
      vertex 3.68061 2.125 0
      vertex 3.68061 2.125 12.5
    endloop
  endfacet
  facet normal -0.358368 -0.93358 0
    outer loop
      vertex 1.31332 4.04199 0
      vertex 1.72863 3.88257 12.5
      vertex 1.31332 4.04199 12.5
    endloop
  endfacet
  facet normal -0.358368 -0.93358 -0
    outer loop
      vertex 1.72863 3.88257 12.5
      vertex 1.31332 4.04199 0
      vertex 1.72863 3.88257 0
    endloop
  endfacet
  facet normal -0.544639 -0.83867 0
    outer loop
      vertex 2.125 3.68061 0
      vertex 2.49809 3.43832 12.5
      vertex 2.125 3.68061 12.5
    endloop
  endfacet
  facet normal -0.544639 -0.83867 -0
    outer loop
      vertex 2.49809 3.43832 12.5
      vertex 2.125 3.68061 0
      vertex 2.49809 3.43832 0
    endloop
  endfacet
  facet normal 0.891007 -0.45399 0
    outer loop
      vertex -3.88257 1.72863 12.5
      vertex -3.68061 2.125 0
      vertex -3.68061 2.125 12.5
    endloop
  endfacet
  facet normal 0.891007 -0.45399 0
    outer loop
      vertex -3.68061 2.125 0
      vertex -3.88257 1.72863 12.5
      vertex -3.88257 1.72863 0
    endloop
  endfacet
  facet normal 0.0523363 -0.99863 0
    outer loop
      vertex -0.444245 4.22672 0
      vertex 0 4.25 12.5
      vertex -0.444245 4.22672 12.5
    endloop
  endfacet
  facet normal 0.0523363 -0.99863 0
    outer loop
      vertex 0 4.25 12.5
      vertex -0.444245 4.22672 0
      vertex 0 4.25 0
    endloop
  endfacet
  facet normal -0.93358 0.358368 0
    outer loop
      vertex 3.88257 -1.72863 0
      vertex 4.04199 -1.31332 12.5
      vertex 4.04199 -1.31332 0
    endloop
  endfacet
  facet normal -0.93358 0.358368 0
    outer loop
      vertex 4.04199 -1.31332 12.5
      vertex 3.88257 -1.72863 0
      vertex 3.88257 -1.72863 12.5
    endloop
  endfacet
  facet normal 0.99863 0.0523363 0
    outer loop
      vertex -4.22672 -0.444245 12.5
      vertex -4.25 0 0
      vertex -4.25 0 12.5
    endloop
  endfacet
  facet normal 0.99863 0.0523363 0
    outer loop
      vertex -4.25 0 0
      vertex -4.22672 -0.444245 12.5
      vertex -4.22672 -0.444245 0
    endloop
  endfacet
  facet normal -0.965926 -0.258819 0
    outer loop
      vertex 4.15713 0.883624 0
      vertex 4.04199 1.31332 12.5
      vertex 4.04199 1.31332 0
    endloop
  endfacet
  facet normal -0.965926 -0.258819 0
    outer loop
      vertex 4.04199 1.31332 12.5
      vertex 4.15713 0.883624 0
      vertex 4.15713 0.883624 12.5
    endloop
  endfacet
  facet normal -0.987688 -0.156436 0
    outer loop
      vertex 4.22672 0.444245 0
      vertex 4.15713 0.883624 12.5
      vertex 4.15713 0.883624 0
    endloop
  endfacet
  facet normal -0.987688 -0.156436 0
    outer loop
      vertex 4.15713 0.883624 12.5
      vertex 4.22672 0.444245 0
      vertex 4.22672 0.444245 12.5
    endloop
  endfacet
  facet normal -0.93358 -0.358368 0
    outer loop
      vertex 4.04199 1.31332 0
      vertex 3.88257 1.72863 12.5
      vertex 3.88257 1.72863 0
    endloop
  endfacet
  facet normal -0.93358 -0.358368 0
    outer loop
      vertex 3.88257 1.72863 12.5
      vertex 4.04199 1.31332 0
      vertex 4.04199 1.31332 12.5
    endloop
  endfacet
  facet normal -0.777146 -0.629321 0
    outer loop
      vertex 3.43832 2.49809 0
      vertex 3.15837 2.8438 12.5
      vertex 3.15837 2.8438 0
    endloop
  endfacet
  facet normal -0.777146 -0.629321 0
    outer loop
      vertex 3.15837 2.8438 12.5
      vertex 3.43832 2.49809 0
      vertex 3.43832 2.49809 12.5
    endloop
  endfacet
  facet normal -0.258819 -0.965926 0
    outer loop
      vertex 0.883624 4.15713 0
      vertex 1.31332 4.04199 12.5
      vertex 0.883624 4.15713 12.5
    endloop
  endfacet
  facet normal -0.258819 -0.965926 -0
    outer loop
      vertex 1.31332 4.04199 12.5
      vertex 0.883624 4.15713 0
      vertex 1.31332 4.04199 0
    endloop
  endfacet
  facet normal -0.156436 -0.987688 0
    outer loop
      vertex 0.444245 4.22672 0
      vertex 0.883624 4.15713 12.5
      vertex 0.444245 4.22672 12.5
    endloop
  endfacet
  facet normal -0.156436 -0.987688 -0
    outer loop
      vertex 0.883624 4.15713 12.5
      vertex 0.444245 4.22672 0
      vertex 0.883624 4.15713 0
    endloop
  endfacet
  facet normal -0.453989 -0.891007 0
    outer loop
      vertex 1.72863 3.88257 0
      vertex 2.125 3.68061 12.5
      vertex 1.72863 3.88257 12.5
    endloop
  endfacet
  facet normal -0.453989 -0.891007 -0
    outer loop
      vertex 2.125 3.68061 12.5
      vertex 1.72863 3.88257 0
      vertex 2.125 3.68061 0
    endloop
  endfacet
  facet normal -0.629321 -0.777146 0
    outer loop
      vertex 2.49809 3.43832 0
      vertex 2.8438 3.15837 12.5
      vertex 2.49809 3.43832 12.5
    endloop
  endfacet
  facet normal -0.629321 -0.777146 -0
    outer loop
      vertex 2.8438 3.15837 12.5
      vertex 2.49809 3.43832 0
      vertex 2.8438 3.15837 0
    endloop
  endfacet
  facet normal 0.965926 -0.258819 0
    outer loop
      vertex -4.15713 0.883624 12.5
      vertex -4.04199 1.31332 0
      vertex -4.04199 1.31332 12.5
    endloop
  endfacet
  facet normal 0.965926 -0.258819 0
    outer loop
      vertex -4.04199 1.31332 0
      vertex -4.15713 0.883624 12.5
      vertex -4.15713 0.883624 0
    endloop
  endfacet
  facet normal 0.777146 -0.629321 0
    outer loop
      vertex -3.43832 2.49809 12.5
      vertex -3.15837 2.8438 0
      vertex -3.15837 2.8438 12.5
    endloop
  endfacet
  facet normal 0.777146 -0.629321 0
    outer loop
      vertex -3.15837 2.8438 0
      vertex -3.43832 2.49809 12.5
      vertex -3.43832 2.49809 0
    endloop
  endfacet
  facet normal 0.707107 -0.707107 0
    outer loop
      vertex -3.15837 2.8438 12.5
      vertex -2.8438 3.15837 0
      vertex -2.8438 3.15837 12.5
    endloop
  endfacet
  facet normal 0.707107 -0.707107 0
    outer loop
      vertex -2.8438 3.15837 0
      vertex -3.15837 2.8438 12.5
      vertex -3.15837 2.8438 0
    endloop
  endfacet
  facet normal 0.838671 -0.544638 0
    outer loop
      vertex -3.68061 2.125 12.5
      vertex -3.43832 2.49809 0
      vertex -3.43832 2.49809 12.5
    endloop
  endfacet
  facet normal 0.838671 -0.544638 0
    outer loop
      vertex -3.43832 2.49809 0
      vertex -3.68061 2.125 12.5
      vertex -3.68061 2.125 0
    endloop
  endfacet
  facet normal 0.93358 -0.358368 0
    outer loop
      vertex -4.04199 1.31332 12.5
      vertex -3.88257 1.72863 0
      vertex -3.88257 1.72863 12.5
    endloop
  endfacet
  facet normal 0.93358 -0.358368 0
    outer loop
      vertex -3.88257 1.72863 0
      vertex -4.04199 1.31332 12.5
      vertex -4.04199 1.31332 0
    endloop
  endfacet
  facet normal 0.987688 -0.156436 0
    outer loop
      vertex -4.22672 0.444245 12.5
      vertex -4.15713 0.883624 0
      vertex -4.15713 0.883624 12.5
    endloop
  endfacet
  facet normal 0.987688 -0.156436 0
    outer loop
      vertex -4.15713 0.883624 0
      vertex -4.22672 0.444245 12.5
      vertex -4.22672 0.444245 0
    endloop
  endfacet
  facet normal 0.45399 -0.891007 0
    outer loop
      vertex -2.125 3.68061 0
      vertex -1.72863 3.88257 12.5
      vertex -2.125 3.68061 12.5
    endloop
  endfacet
  facet normal 0.45399 -0.891007 0
    outer loop
      vertex -1.72863 3.88257 12.5
      vertex -2.125 3.68061 0
      vertex -1.72863 3.88257 0
    endloop
  endfacet
  facet normal 0.358368 -0.93358 0
    outer loop
      vertex -1.72863 3.88257 0
      vertex -1.31332 4.04199 12.5
      vertex -1.72863 3.88257 12.5
    endloop
  endfacet
  facet normal 0.358368 -0.93358 0
    outer loop
      vertex -1.31332 4.04199 12.5
      vertex -1.72863 3.88257 0
      vertex -1.31332 4.04199 0
    endloop
  endfacet
  facet normal 0.544638 -0.838671 0
    outer loop
      vertex -2.49809 3.43832 0
      vertex -2.125 3.68061 12.5
      vertex -2.49809 3.43832 12.5
    endloop
  endfacet
  facet normal 0.544638 -0.838671 0
    outer loop
      vertex -2.125 3.68061 12.5
      vertex -2.49809 3.43832 0
      vertex -2.125 3.68061 0
    endloop
  endfacet
  facet normal 0.156436 -0.987688 0
    outer loop
      vertex -0.883624 4.15713 0
      vertex -0.444245 4.22672 12.5
      vertex -0.883624 4.15713 12.5
    endloop
  endfacet
  facet normal 0.156436 -0.987688 0
    outer loop
      vertex -0.444245 4.22672 12.5
      vertex -0.883624 4.15713 0
      vertex -0.444245 4.22672 0
    endloop
  endfacet
  facet normal -0.99863 0.0523363 0
    outer loop
      vertex 4.22672 -0.444245 0
      vertex 4.25 0 12.5
      vertex 4.25 0 0
    endloop
  endfacet
  facet normal -0.99863 0.0523363 0
    outer loop
      vertex 4.25 0 12.5
      vertex 4.22672 -0.444245 0
      vertex 4.22672 -0.444245 12.5
    endloop
  endfacet
  facet normal -0.0523363 0.99863 0
    outer loop
      vertex 0.444245 -4.22672 0
      vertex 0 -4.25 12.5
      vertex 0.444245 -4.22672 12.5
    endloop
  endfacet
  facet normal -0.0523363 0.99863 0
    outer loop
      vertex 0 -4.25 12.5
      vertex 0.444245 -4.22672 0
      vertex 0 -4.25 0
    endloop
  endfacet
  facet normal -0.258819 0.965926 0
    outer loop
      vertex 1.31332 -4.04199 0
      vertex 0.883624 -4.15713 12.5
      vertex 1.31332 -4.04199 12.5
    endloop
  endfacet
  facet normal -0.258819 0.965926 0
    outer loop
      vertex 0.883624 -4.15713 12.5
      vertex 1.31332 -4.04199 0
      vertex 0.883624 -4.15713 0
    endloop
  endfacet
  facet normal -0.629321 0.777146 0
    outer loop
      vertex 2.8438 -3.15837 0
      vertex 2.49809 -3.43832 12.5
      vertex 2.8438 -3.15837 12.5
    endloop
  endfacet
  facet normal -0.629321 0.777146 0
    outer loop
      vertex 2.49809 -3.43832 12.5
      vertex 2.8438 -3.15837 0
      vertex 2.49809 -3.43832 0
    endloop
  endfacet
  facet normal -0.453989 0.891007 0
    outer loop
      vertex 2.125 -3.68061 0
      vertex 1.72863 -3.88257 12.5
      vertex 2.125 -3.68061 12.5
    endloop
  endfacet
  facet normal -0.453989 0.891007 0
    outer loop
      vertex 1.72863 -3.88257 12.5
      vertex 2.125 -3.68061 0
      vertex 1.72863 -3.88257 0
    endloop
  endfacet
  facet normal -0.777146 0.629321 0
    outer loop
      vertex 3.15837 -2.8438 0
      vertex 3.43832 -2.49809 12.5
      vertex 3.43832 -2.49809 0
    endloop
  endfacet
  facet normal -0.777146 0.629321 0
    outer loop
      vertex 3.43832 -2.49809 12.5
      vertex 3.15837 -2.8438 0
      vertex 3.15837 -2.8438 12.5
    endloop
  endfacet
  facet normal -0.891007 0.45399 0
    outer loop
      vertex 3.68061 -2.125 0
      vertex 3.88257 -1.72863 12.5
      vertex 3.88257 -1.72863 0
    endloop
  endfacet
  facet normal -0.891007 0.45399 0
    outer loop
      vertex 3.88257 -1.72863 12.5
      vertex 3.68061 -2.125 0
      vertex 3.68061 -2.125 12.5
    endloop
  endfacet
  facet normal 0.707107 0.707107 0
    outer loop
      vertex -2.8438 -3.15837 12.5
      vertex -3.15837 -2.8438 0
      vertex -3.15837 -2.8438 12.5
    endloop
  endfacet
  facet normal 0.707107 0.707107 0
    outer loop
      vertex -3.15837 -2.8438 0
      vertex -2.8438 -3.15837 12.5
      vertex -2.8438 -3.15837 0
    endloop
  endfacet
  facet normal 0.544639 0.83867 -0
    outer loop
      vertex -2.125 -3.68061 0
      vertex -2.49809 -3.43832 12.5
      vertex -2.125 -3.68061 12.5
    endloop
  endfacet
  facet normal 0.544639 0.83867 0
    outer loop
      vertex -2.49809 -3.43832 12.5
      vertex -2.125 -3.68061 0
      vertex -2.49809 -3.43832 0
    endloop
  endfacet
  facet normal 0.358368 0.93358 -0
    outer loop
      vertex -1.31332 -4.04199 0
      vertex -1.72863 -3.88257 12.5
      vertex -1.31332 -4.04199 12.5
    endloop
  endfacet
  facet normal 0.358368 0.93358 0
    outer loop
      vertex -1.72863 -3.88257 12.5
      vertex -1.31332 -4.04199 0
      vertex -1.72863 -3.88257 0
    endloop
  endfacet
  facet normal 0.156436 0.987688 -0
    outer loop
      vertex -0.444245 -4.22672 0
      vertex -0.883624 -4.15713 12.5
      vertex -0.444245 -4.22672 12.5
    endloop
  endfacet
  facet normal 0.156436 0.987688 0
    outer loop
      vertex -0.883624 -4.15713 12.5
      vertex -0.444245 -4.22672 0
      vertex -0.883624 -4.15713 0
    endloop
  endfacet
  facet normal 0.93358 0.358368 0
    outer loop
      vertex -3.88257 -1.72863 12.5
      vertex -4.04199 -1.31332 0
      vertex -4.04199 -1.31332 12.5
    endloop
  endfacet
  facet normal 0.93358 0.358368 0
    outer loop
      vertex -4.04199 -1.31332 0
      vertex -3.88257 -1.72863 12.5
      vertex -3.88257 -1.72863 0
    endloop
  endfacet
  facet normal 0.838671 0.544638 0
    outer loop
      vertex -3.43832 -2.49809 12.5
      vertex -3.68061 -2.125 0
      vertex -3.68061 -2.125 12.5
    endloop
  endfacet
  facet normal 0.838671 0.544638 0
    outer loop
      vertex -3.68061 -2.125 0
      vertex -3.43832 -2.49809 12.5
      vertex -3.43832 -2.49809 0
    endloop
  endfacet
  facet normal 0.987688 0.156436 0
    outer loop
      vertex -4.15713 -0.883624 12.5
      vertex -4.22672 -0.444245 0
      vertex -4.22672 -0.444245 12.5
    endloop
  endfacet
  facet normal 0.987688 0.156436 0
    outer loop
      vertex -4.22672 -0.444245 0
      vertex -4.15713 -0.883624 12.5
      vertex -4.15713 -0.883624 0
    endloop
  endfacet
  facet normal 0.965926 0.258819 0
    outer loop
      vertex -4.04199 -1.31332 12.5
      vertex -4.15713 -0.883624 0
      vertex -4.15713 -0.883624 12.5
    endloop
  endfacet
  facet normal 0.965926 0.258819 0
    outer loop
      vertex -4.15713 -0.883624 0
      vertex -4.04199 -1.31332 12.5
      vertex -4.04199 -1.31332 0
    endloop
  endfacet
  facet normal -0.156436 0.987688 0
    outer loop
      vertex 0.883624 -4.15713 0
      vertex 0.444245 -4.22672 12.5
      vertex 0.883624 -4.15713 12.5
    endloop
  endfacet
  facet normal -0.156436 0.987688 0
    outer loop
      vertex 0.444245 -4.22672 12.5
      vertex 0.883624 -4.15713 0
      vertex 0.444245 -4.22672 0
    endloop
  endfacet
  facet normal -0.358368 0.93358 0
    outer loop
      vertex 1.72863 -3.88257 0
      vertex 1.31332 -4.04199 12.5
      vertex 1.72863 -3.88257 12.5
    endloop
  endfacet
  facet normal -0.358368 0.93358 0
    outer loop
      vertex 1.31332 -4.04199 12.5
      vertex 1.72863 -3.88257 0
      vertex 1.31332 -4.04199 0
    endloop
  endfacet
  facet normal -0.707107 0.707107 0
    outer loop
      vertex 2.8438 -3.15837 0
      vertex 3.15837 -2.8438 12.5
      vertex 3.15837 -2.8438 0
    endloop
  endfacet
  facet normal -0.707107 0.707107 0
    outer loop
      vertex 3.15837 -2.8438 12.5
      vertex 2.8438 -3.15837 0
      vertex 2.8438 -3.15837 12.5
    endloop
  endfacet
  facet normal -0.544639 0.83867 0
    outer loop
      vertex 2.49809 -3.43832 0
      vertex 2.125 -3.68061 12.5
      vertex 2.49809 -3.43832 12.5
    endloop
  endfacet
  facet normal -0.544639 0.83867 0
    outer loop
      vertex 2.125 -3.68061 12.5
      vertex 2.49809 -3.43832 0
      vertex 2.125 -3.68061 0
    endloop
  endfacet
  facet normal -0.838671 0.544638 0
    outer loop
      vertex 3.43832 -2.49809 0
      vertex 3.68061 -2.125 12.5
      vertex 3.68061 -2.125 0
    endloop
  endfacet
  facet normal -0.838671 0.544638 0
    outer loop
      vertex 3.68061 -2.125 12.5
      vertex 3.43832 -2.49809 0
      vertex 3.43832 -2.49809 12.5
    endloop
  endfacet
  facet normal -0.987688 0.156436 0
    outer loop
      vertex 4.15713 -0.883624 0
      vertex 4.22672 -0.444245 12.5
      vertex 4.22672 -0.444245 0
    endloop
  endfacet
  facet normal -0.987688 0.156436 0
    outer loop
      vertex 4.22672 -0.444245 12.5
      vertex 4.15713 -0.883624 0
      vertex 4.15713 -0.883624 12.5
    endloop
  endfacet
  facet normal -0.965926 0.258819 0
    outer loop
      vertex 4.04199 -1.31332 0
      vertex 4.15713 -0.883624 12.5
      vertex 4.15713 -0.883624 0
    endloop
  endfacet
  facet normal -0.965926 0.258819 0
    outer loop
      vertex 4.15713 -0.883624 12.5
      vertex 4.04199 -1.31332 0
      vertex 4.04199 -1.31332 12.5
    endloop
  endfacet
  facet normal 0.629321 0.777146 -0
    outer loop
      vertex -2.49809 -3.43832 0
      vertex -2.8438 -3.15837 12.5
      vertex -2.49809 -3.43832 12.5
    endloop
  endfacet
  facet normal 0.629321 0.777146 0
    outer loop
      vertex -2.8438 -3.15837 12.5
      vertex -2.49809 -3.43832 0
      vertex -2.8438 -3.15837 0
    endloop
  endfacet
  facet normal 0.453989 0.891007 -0
    outer loop
      vertex -1.72863 -3.88257 0
      vertex -2.125 -3.68061 12.5
      vertex -1.72863 -3.88257 12.5
    endloop
  endfacet
  facet normal 0.453989 0.891007 0
    outer loop
      vertex -2.125 -3.68061 12.5
      vertex -1.72863 -3.88257 0
      vertex -2.125 -3.68061 0
    endloop
  endfacet
  facet normal 0.258819 0.965926 -0
    outer loop
      vertex -0.883624 -4.15713 0
      vertex -1.31332 -4.04199 12.5
      vertex -0.883624 -4.15713 12.5
    endloop
  endfacet
  facet normal 0.258819 0.965926 0
    outer loop
      vertex -1.31332 -4.04199 12.5
      vertex -0.883624 -4.15713 0
      vertex -1.31332 -4.04199 0
    endloop
  endfacet
  facet normal 0.891007 0.45399 0
    outer loop
      vertex -3.68061 -2.125 12.5
      vertex -3.88257 -1.72863 0
      vertex -3.88257 -1.72863 12.5
    endloop
  endfacet
  facet normal 0.891007 0.45399 0
    outer loop
      vertex -3.88257 -1.72863 0
      vertex -3.68061 -2.125 12.5
      vertex -3.68061 -2.125 0
    endloop
  endfacet
endsolid OpenSCAD_Model
